<svg
  xmlns="http://www.w3.org/2000/svg"
  width="24"
  height="24"
  viewBox="0 0 24 24"
  fill="currentColor"
>
  <path d="M12 1.5a10.5 10.5 0 0 0-3.32 20.46c.52.1.71-.22.71-.5v-1.78c-2.89.63-3.5-1.22-3.5-1.22-.47-1.18-1.15-1.5-1.15-1.5-.94-.64.07-.63.07-.63 1.04.08 1.59 1.06 1.59 1.06.92 1.58 2.42 1.12 3.01.86.09-.68.36-1.12.65-1.38-2.31-.26-4.73-1.15-4.73-5.12 0-1.13.4-2.06 1.06-2.78-.1-.26-.46-1.32.1-2.74 0 0 .87-.28 2.85 1.06a9.93 9.93 0 0 1 5.2 0c1.98-1.34 2.85-1.06 2.85-1.06.56 1.42.2 2.48.1 2.74.66.72 1.06 1.65 1.06 2.78 0 3.98-2.42 4.86-4.74 5.11.37.32.7.95.7 1.92v2.84c0 .28.19.61.72.5A10.5 10.5 0 0 0 12 1.5Z"/>
</svg>
