<svg
  xmlns="http://www.w3.org/2000/svg"
  width="24"
  height="24"
  viewBox="0 0 24 24"
  fill="none"
>
  <path d="M21.6 12.23c0-.72-.06-1.25-.2-1.8H12v3.39h5.52c-.11.84-.72 2.1-2.08 2.95l-.02.11 3.02 2.34.21.02c1.93-1.78 3.05-4.39 3.05-7.01Z" fill="#4285F4"/>
  <path d="M12 22c2.7 0 4.96-.89 6.61-2.42l-3.21-2.47c-.86.6-2.01 1.02-3.4 1.02-2.64 0-4.88-1.74-5.68-4.14l-.1.01-3.14 2.43-.03.1A9.99 9.99 0 0 0 12 22Z" fill="#34A853"/>
  <path d="M6.32 13.99A5.98 5.98 0 0 1 6 12c0-.69.12-1.35.31-1.99l-.01-.13-3.17-2.47-.1.05A10 10 0 0 0 2 12c0 1.61.38 3.14 1.03 4.53l3.29-2.54Z" fill="#FBBC05"/>
  <path d="M12 5.87c1.75 0 2.93.76 3.61 1.39l2.64-2.58C16.95 3.48 14.7 2 12 2a9.99 9.99 0 0 0-8.97 5.47L6.31 10c.81-2.4 3.05-4.13 5.69-4.13Z" fill="#EA4335"/>
</svg>
